# xmcd
#
# Track frame offsets:
#	150
#	13369
#	28000
#	37331
#	45413
#	56484
#	74201
#	85225
#	97414
#	106669
#	117020
#
# Disc length: 1933 seconds
#
# Revision: 0
# Processed by: cddbd v1.5.2PL0 Copyright (c) Steve Scherf et al.
# Submitted via: EasyCDDAExtractor 11.1.0.1
#
DISCID=9b078b0b
DTITLE=The Flying Burrito Brothers - Burrito Deluxe
DYEAR=1970
DGENRE=Classic Rock
TTITLE0=Lazy Days
TTITLE1=Image of Me
TTITLE2=High Fashion Queen
TTITLE3=If You Gotta Go
TTITLE4=Man In The Fog
TTITLE5=Farther Along
TTITLE6=Older Guys
TTITLE7=Cody Cody
TTITLE8=Gods Own Singer
TTITLE9=Down In The Churchyard
TTITLE10=Wild Horses
EXTD=
EXTT0=
EXTT1=
EXTT2=
EXTT3=
EXTT4=
EXTT5=
EXTT6=
EXTT7=
EXTT8=
EXTT9=
EXTT10=
PLAYORDER=
